<svg height="24" width="24" xmlns="http://www.w3.org/2000/svg" viewBox="2.4 16.3 607.2 606.5"><path d="M588.2,230.2l-193.2-193c-27.1-26.7-75.4-29-103.8,0c-28.6,28.6-28.6,75.2,0,103.8l10.4,10.4L103,211.2 c-18,5.4-31.6,20.2-35.4,38.7L3.6,561.3c-7.6,34.5,24,67.7,60.5,60.5l311.4-64.1c18.4-3.8,33.2-17.3,38.7-35.4l59.9-198.8l10.4,10.4 c34.7,35.9,85.2,22.1,103.8,0C618.7,306.4,614.7,260.1,588.2,230.2z M381.8,512.7c-1.9,6.1-6.9,10.8-13.1,12.1L61.3,587.8L207,442.1 c9.1,5.1,19.6,8.1,30.8,8.1c34.7,0,62.9-28.1,62.9-62.9c0-34.8-28.1-62.9-62.9-62.9S175,352.6,175,387.4c0,11.2,3,21.8,8.1,30.8 L37.4,564.1l63.2-307.3c1.3-6.3,5.9-11.4,12.1-13.1l61.8-18.6l39.3,39.3c7.8,7.8,20.6,3.3,23.9,0c6.6-6.6,6.6-17.2,0-23.9 l-26.5-26.5l34.2-10.3l66.8,66.8c7.9,7.9,20.6,3.3,23.9,0c6.6-6.6,6.6-17.2,0-23.9l-54-54l46.9-14.1L447,296.4L381.8,512.7z M208.6,387.5c0-16.1,13-29.2,29.2-29.2s29.2,13,29.2,29.2s-13,29.2-29.2,29.2S208.6,403.6,208.6,387.5z M564.3,310.1 c-15.8,14.1-33.8,16.9-56.1,0l-193-193c-15.3-18.2-15.7-36.8,0-56.1c21.4-17.6,42.9-12.7,56.1,0l193,193 C579.1,271.3,580.4,289.9,564.3,310.1z"></path></svg>