<svg xmlns="http://www.w3.org/2000/svg" width="128" height="128" viewBox="0 0 128 128"><path d="M10 0C4.5 0 0 4.5 0 10v108c0 5.5 4.5 10 10 10h108c5.5 0 10-4.5 10-10V10c0-5.5-4.5-10-10-10H10zM121 15.9v96.2c0 4.9-4 8.9-8.9 8.9H15.9c-4.9 0-8.9-4-8.9-8.9V15.9C7 11 11 7 15.9 7h96.2C117 7 121 11 121 15.9z" class="a"/><path d="M83.5 96c7-6.3 11.7-15.6 9.9-26.8 -4.1-26.2-43.5-26.3-51.8-6.2 3.8-13.2 15.7-18.3 28.6-22.3C61 33.8 53.5 25.3 43.5 19.2c-1.8 16.4-10.2 26.1-13.4 41.1 0 2.1 0 4 0 6.1C32.8 85.1 43.5 96 59.6 101H102v-4.1C98 94.8 89.4 96.6 83.5 96zM64 96c-20.9-2.3-25.4-37-1.8-42C95.8 46.9 95.9 99.5 64 96zM82.9 63.8c-6.9-3.8-20.6-0.8-30.4-1.8 -5.9 2.4-4.3 20-1.8 25 8.6 1 25 2.4 32.2-0.9C84.4 80.7 84.4 69.4 82.9 63.8zM80.2 64c-4.8 13-22.1 13-26.8 0H80.2zM71.3 76.3c-0.2 2.9 7.4 5.7 9.8 8.9 -7.8 2.1-19.4 0.3-28.6 0.9 2.4-4.1 7-6.2 9.8-9.8 -5.9 0.2-8.3 8.2-12.5 7.1 0.3-6.2-0.8-13.9 0.9-18.8 4.5 4.4 8.6 9.3 14.3 12.5 7.7-1.9 13.4-5.7 16.1-12.5 3.6 3.3 1.1 12.7 1.8 18.8C78.4 81.8 75.8 78.1 71.3 76.3z" class="a"/></svg>