<svg xmlns="http://www.w3.org/2000/svg" height="24" width="24" viewBox="0 0 512 512"><path d="M489.7 0H22.3C13 0 5.6 7.5 5.6 16.7v478.6c0 9.2 7.5 16.7 16.7 16.7h467.5c9.2 0 16.7-7.5 16.7-16.7V16.7C506.4 7.5 499 0 489.7 0zM161.4 478.6H39v-66.8h122.4V478.6zM161.4 378.4H39V33.4h122.4V378.4zM317.2 478.6H194.8v-66.8h122.4V478.6zM317.2 378.4H194.8V33.4h122.4V378.4zM473 478.6H350.6v-66.8h122.4V478.6zM473 378.4H350.6V33.4h122.4V378.4z"></path><path d="M116.9 66.8H83.5c-9.2 0-16.7 7.5-16.7 16.7s7.5 16.7 16.7 16.7h33.4c9.2 0 16.7-7.5 16.7-16.7S126.1 66.8 116.9 66.8z"></path><path d="M116.9 133.6H83.5c-9.2 0-16.7 7.5-16.7 16.7s7.5 16.7 16.7 16.7h33.4c9.2 0 16.7-7.5 16.7-16.7S126.1 133.6 116.9 133.6z"></path><path d="M100.2 200.3c-9.2 0-16.7 7.5-16.7 16.7v111.3c0 9.2 7.5 16.7 16.7 16.7 9.2 0 16.7-7.5 16.7-16.7V217C116.9 207.8 109.4 200.3 100.2 200.3z"></path><path d="M272.7 66.8h-33.4c-9.2 0-16.7 7.5-16.7 16.7s7.5 16.7 16.7 16.7h33.4c9.2 0 16.7-7.5 16.7-16.7S281.9 66.8 272.7 66.8z"></path><path d="M272.7 133.6h-33.4c-9.2 0-16.7 7.5-16.7 16.7s7.5 16.7 16.7 16.7h33.4c9.2 0 16.7-7.5 16.7-16.7S281.9 133.6 272.7 133.6z"></path><path d="M256 200.3c-9.2 0-16.7 7.5-16.7 16.7v111.3c0 9.2 7.5 16.7 16.7 16.7 9.2 0 16.7-7.5 16.7-16.7V217C272.7 207.8 265.2 200.3 256 200.3z"></path><path d="M428.5 66.8H395.1c-9.2 0-16.7 7.5-16.7 16.7s7.5 16.7 16.7 16.7h33.4c9.2 0 16.7-7.5 16.7-16.7S437.7 66.8 428.5 66.8z"></path><path d="M428.5 133.6H395.1c-9.2 0-16.7 7.5-16.7 16.7s7.5 16.7 16.7 16.7h33.4c9.2 0 16.7-7.5 16.7-16.7S437.7 133.6 428.5 133.6z"></path><path d="M411.8 200.3c-9.2 0-16.7 7.5-16.7 16.7v111.3c0 9.2 7.5 16.7 16.7 16.7 9.2 0 16.7-7.5 16.7-16.7V217C428.5 207.8 421 200.3 411.8 200.3z"></path></svg>