<svg height="24" width="24" xmlns="http://www.w3.org/2000/svg" viewBox="2.4 15.9 607.2 607.2"><path d="M168.9 564.3h78.3V486h-78.3V564.3zM188.5 505.6h39.2v39.2h-39.2V505.6zM51.4 446.8h78.3v-78.3H51.4V446.8zM71 388.1h39.2v39.2H71V388.1zM51.4 329.3h78.3V251H51.4V329.3zM71 270.5h39.2v39.2H71V270.5zM51.4 564.3h78.3V486H51.4V564.3zM71 505.6h39.2v39.2H71V505.6zM286.4 564.3h78.3V368.5h-78.3V564.3zM306 388.1h39.2v156.7H306V388.1zM364.8 15.9H51.4c-27 0-49 22-49 49v509.2c0 27 22 49 49 49h313.4c27 0 49-22 49-49V64.9C413.7 37.9 391.7 15.9 364.8 15.9zM394.2 574.1h-0.1c0 16.3-13.1 29.4-29.4 29.4H51.4c-16.3 0-29.4-13.1-29.4-29.4V64.9c0-16.3 13.1-29.4 29.4-29.4h313.4c16.3 0 29.4 13.1 29.4 29.4V574.1zM51.4 211.8h313.4V74.7H51.4V211.8zM71 94.2h274.2v97.9H71V94.2zM237.4 153H257v-19.6h-19.6V153zM541 15.9c-37.8 0-68.6 30.7-68.6 68.6v19.6h-39.2v156.7h19.6V123.6h19.6v425.2l68.6 68.6 68.6-68.6V84.5C609.6 46.6 578.9 15.9 541 15.9zM541 589.6l-35.1-35.1h70.3L541 589.6zM590 535h-97.9v-58.8H590V535zM590 456.6h-97.9v-333H590V456.6zM590.1 104H590h-97.9V84.5c0-10.1 3.2-20.1 9-28.3 5.7-8 13.8-14.3 23.1-17.7 9.6-3.5 20.3-4 30.2-1.2 9.5 2.7 18.1 8.3 24.4 15.9 6.4 7.7 10.3 17.3 11.1 27.3 0.1 1.3 0.2 2.6 0.2 3.9V104zM159.1 153h19.6v-19.6h-19.6V153zM168.9 329.3h78.3V251h-78.3V329.3zM188.5 270.5h39.2v39.2h-39.2V270.5zM286.4 329.3h78.3V251h-78.3V329.3zM306 270.5h39.2v39.2H306V270.5zM198.3 153h19.6v-19.6h-19.6V153zM168.9 446.8h78.3v-78.3h-78.3V446.8zM188.5 388.1h39.2v39.2h-39.2V388.1z"></path></svg>