<svg height="24" width="24" xmlns="http://www.w3.org/2000/svg" viewBox="0 0 100 100"><path class="st0" d="M82.4 64.1l-12-2.2c-1.9-0.4-3.9-0.1-5.7 0.8L60 65.1c-9.8-6-17.9-14.3-23.8-24.1l3.3-9c0.7-1.8 0.7-3.9 0.1-5.7l-3.7-11.7c-1.4-4.3-5.8-6.9-10.2-6l-13.5 2.7c-0.5 0.1-1 0.3-1.3 0.7 -0.4 0.4-0.4 1.2-0.4 1.7 0 2.3 0.1 4.6 0.2 6.9 0.1 1.8 0.3 3.6 0.6 5.4s0.6 3.5 0.9 5.3c0.4 1.7 0.8 3.4 1.3 5.1 0.5 1.7 1 3.3 1.6 5 0.6 1.6 1.3 3.2 2 4.8 0.7 1.6 1.5 3.1 2.3 4.7 0.8 1.5 1.7 3 2.6 4.5s1.9 2.9 2.9 4.3c1 1.4 2.1 2.8 3.1 4.1 1.1 1.3 2.2 2.6 3.4 3.9 1.2 1.2 2.4 2.5 3.7 3.6 1.3 1.2 2.6 2.3 3.9 3.4 1.3 1.1 2.7 2.1 4.1 3.1 1.4 1 2.8 1.9 4.3 2.8 1.5 0.9 3 1.7 4.5 2.5 1.5 0.8 3.1 1.6 4.7 2.2 1.6 0.7 3.2 1.3 4.9 1.9 1.7 0.6 3.3 1.1 5 1.6s3.4 0.9 5.2 1.3c1.8 0.4 3.5 0.7 5.3 0.9s3.6 0.4 5.4 0.5c0.9 0.1 1.7 0.1 2.6 0.1h1.2c0.4 0 0.8 0 1.2-0.1 0.4-0.2 0.7-0.5 0.9-0.9 0.3-0.6 0.3-1.2 0.3-1.8 0.1-0.9 0.1-1.8 0.2-2.7 0.1-1.2 0.2-2.4 0.3-3.7 0.1-1.3 0.2-2.5 0.3-3.8 0.1-1.1 0.2-2.1 0.2-3.2 0-0.6 0.1-1.2 0.1-1.7v-0.1C90 69.1 86.9 65 82.4 64.1zM84.6 87.6C45.5 86.2 14.4 54.1 14.4 15v-0.1l12.1-2.4c2.4-0.5 4.8 1 5.5 3.4 0 0 3.7 11.7 3.7 11.7 0.5 1.8-0.2 3.4-0.8 5.1 -0.7 1.8-1.4 3.7-2 5.5 -0.4 1.1-1.3 2.8-0.7 4 5.3 10.7 14.6 18.9 24.2 25.6 0.8 0.6 1.7 1.2 2.6 1.4 1.7 0.4 2.9-0.7 4.2-1.6 1.2-0.7 2.5-1.3 3.8-1.8 0.8-0.3 1.6-0.3 2.4-0.2L81.7 68c2.5 0.4 4.2 2.7 4 5.1L84.6 87.6z"/></svg>