<svg height="24" width="24" xmlns="http://www.w3.org/2000/svg" viewBox="71.3 13.5 471.5 612"><path d="M307.1,128.3c-63.4,0-114.8,51.4-114.8,114.8s51.4,114.8,114.8,114.8S421.9,306.4,421.9,243S370.5,128.3,307.1,128.3z M307.1,332.3c-49.3,0-89.3-40-89.3-89.3s40-89.3,89.3-89.3c49.3,0,89.3,40,89.3,89.3S356.4,332.3,307.1,332.3z M307,13.5 C177,13.6,71.6,118.8,71.3,248.9c0,78.7,41.8,133.5,82.1,186.4l141.3,185.1c2.5,3.2,6.4,5.1,10.5,5.1c7.8,0,10.3,0,59.8-64.9l3.1-4 c18.2-22.9,35.8-45.9,52.8-69.1c7.9-10.6,16.2-21,24.5-31.5c12.8-17,27-34.4,39.7-52.3c26.9-38.3,57.9-90.3,57.9-154.9 C542.5,118.8,437,13.6,307,13.5z M464.4,389.1c-12.8,17.3-25.5,34.6-38.3,51c-8.4,10.6-16.7,21.3-24.7,31.9 c-17.4,23.1-35.1,46.1-52.9,68.9l-4.2,4.3c-20.3,26.6-31.7,40.9-38.3,48.5L173.7,419.7c-39.5-51.9-76.5-100.9-76.5-170.9 c0-116.2,94.2-210.4,210.4-210.3c116.1,0,210.3,94.2,210.3,210.3C517.5,306,490.6,351.8,464.4,389.1z"></path></svg>