<svg height="24" width="24" xmlns="http://www.w3.org/2000/svg" viewBox="45.9 101.6 521.4 588.1"><path d="M537.3 527.6h-53.2c11-8 20.8-16.5 27.5-25.7 11.6-15.3 15.9-42.2 12.2-82.6 -4.3-49.6-18.4-101-19-102.8 -0.6-3.1-3.1-4.9-5.5-6.1s-5.5-1.2-8.6 0.6c0 0-26.9 15.3-63.6 36.7 -6.1-16.5-13.5-34.9-22-55.1 -39.2-89.4-90-184.8-90.6-186 -1.8-3.1-4.9-4.9-8.6-4.9s-6.7 1.8-8.6 4.9c-0.6 1.2-50.8 95.5-89.4 184.2 -9.2 20.8-16.5 39.8-23.3 56.3 -36.7-21.4-63-36.7-63.6-36.7 -2.4-1.2-5.5-1.8-8.6-0.6 -2.4 1.2-4.9 3.7-5.5 6.1s-14.7 53.2-19 102.8c-3.7 39.8 0.6 66.7 12.2 82.6 6.7 9.2 15.9 17.7 27.5 25.7H74.7c-15.9 0-28.8 12.9-28.8 28.8v43.5c0 15.9 12.9 28.8 28.8 28.8h38.6c4.9 27.5 19 45.9 36.7 45.9 0.6 0 0.6 0 1.2 0h3.7l93-10.4c13.5 15.9 34.3 26.3 58.8 26.3 24.5 0 45.3-10.4 58.8-26.3l93 10.4h3.7c0.6 0 0.6 0 1.2 0 17.7 0 31.8-19 36.7-45.9h38.6c15.9 0 28.8-12.9 28.8-28.8v-43.5C565.5 540.4 553.2 527.6 537.3 527.6zM115.7 490.2c-5.5-7.3-12.2-25.7-8.6-69.2 3.1-34.3 11-69.8 15.3-87.5 12.9 7.3 35.5 20.2 62.4 36.1 2.4 1.2 5.5 1.8 8 0.6 2.4-1.2 4.9-3.1 5.5-5.5 6.7-19.6 15.9-41.6 26.3-66.1 30-66.7 65.5-136.5 81.4-167.1 15.9 30.6 52 101.6 81.4 168.9 10.4 23.9 19 45.3 25.7 64.3 1.2 2.4 3.1 4.9 5.5 5.5 2.4 1.2 5.5 0.6 8-0.6 26.9-15.9 49.6-28.8 62.4-36.1 4.3 17.7 12.9 53.9 15.3 87.5 3.7 42.8-2.4 61.2-8.6 69.2 -6.1 8-14.7 15.9-24.5 22.6 1.2-6.7 1.8-17.7 0-34.9 -0.6-9.2-2.4-19-4.3-29.4 0-1.2-1.2-3.1-2.4-3.7 -1.2-0.6-3.1-0.6-4.3 0l-16.5 9.2L399 478.6l-17.1-45.3c-6.7-17.1-14.7-36.1-25.1-58.1 -12.9-27.5-28.8-58.8-46.5-92.4 -0.6-1.8-2.4-2.4-4.3-2.4s-3.7 1.2-4.3 2.4c-17.7 33-33 63.6-45.9 91.2 -10.4 22-19 42.2-25.7 59.4l-17.7 45.3 -44.7-24.5c-5.5-3.1-11-6.1-16.5-9.2 -1.2-0.6-3.1-0.6-4.3 0 -1.2 0.6-2.4 1.8-2.4 3.7 -1.8 10.4-3.1 20.8-4.3 29.4 -1.8 17.1-1.2 28.2 0 34.9C129.7 505.5 121.2 498.2 115.7 490.2zM112 608.4c0 0.6 0 0.6 0 1.2H75.3c-5.5 0-9.8-4.3-9.8-9.8v-43.5c0-5.5 4.3-9.8 9.8-9.8h60.6C121.8 556.3 112 579.6 112 608.4zM149.9 655.5c-8 0-19.6-18.4-19.6-47.1 0-28.8 11.6-47.1 19.6-47.1s19.6 18.4 19.6 47.1S157.9 655.5 149.9 655.5zM238.1 645.1l-58.1 6.1c4.9-10.4 8.6-25.7 8.6-42.8 0-21.4-5.5-39.8-13.5-51.4l6.7-1.2c19 7.3 39.8 13.5 61.2 17.1l-5.5 30c-2.4 6.7-3.7 13.5-3.7 20.8S235 638.4 238.1 645.1zM306 671.4c-30 0-54.5-21.4-54.5-47.1 0-21.4 17.1-39.8 39.8-45.3h28.2c23.3 5.5 39.8 23.9 39.8 45.3C360.5 650.6 336 671.4 306 671.4zM309.1 564.9h-4.9c-69.2 0-135.3-27.5-153-47.1 -0.6-3.1-3.7-13.5-1.2-37.9 0.6-6.7 1.8-14.7 3.1-22.6 3.7 1.8 6.7 3.7 10.4 5.5l49.6 26.9c1.2 0.6 2.4 0.6 3.7 0 1.2-0.6 2.4-1.2 3.1-3.1l19.6-50.2c6.7-17.1 15.3-36.7 25.7-58.8 11.6-25.1 25.7-52.6 41.6-82.6 15.9 30.6 30.6 58.8 42.2 83.8 9.8 21.4 18.4 40.4 24.5 57.5l19.6 50.2c0.6 1.2 1.2 2.4 3.1 3.1 1.2 0.6 2.4 0.6 3.7 0l49.6-26.9c3.7-1.8 7.3-3.7 10.4-5.5 1.2 8 2.4 15.3 3.1 22.6 2.4 24.5-0.6 35.5-1.2 37.9C443.7 537.4 377.6 564.9 309.1 564.9zM433.3 653l-58.1-6.1c2.4-7.3 4.3-14.7 4.3-22 0-8-1.2-14.7-3.7-21.4l-6.1-30c21.4-4.3 42.2-9.8 61.2-17.1l6.7 1.2c-8.6 12.2-13.5 30-13.5 51.4C424.1 626.1 427.8 641.4 433.3 653zM462.1 655.5c-8 0-19.6-18.4-19.6-47.1s11.6-47.1 19.6-47.1 19.6 18.4 19.6 47.1S470 655.5 462.1 655.5zM546.5 599.8c0 5.5-4.3 9.8-9.8 9.8H500c0-0.6 0-0.6 0-1.2 0-28.8-9.8-52-23.9-61.8h60.6c5.5 0 9.8 4.3 9.8 9.8V599.8z"></path></svg>