<svg width="24" height="24" xmlns="http://www.w3.org/2000/svg" viewBox="12.2 25.1 589.3 600.4"> <path d="M447.4,113.5c-32.9,0-59.6,26.7-59.6,59.5c0,32.8,26.7,59.6,59.6,59.6c32.8,0,59.6-26.8,59.6-59.6 C506.9,140.2,480.2,113.5,447.4,113.5z M447.4,216c-23.7,0-43-19.3-43-43c0-23.7,19.3-42.9,43-42.9c23.7,0,43,19.2,43,42.9 C490.3,196.8,471,216,447.4,216z M406.8,25.1c-107.3,0-194.7,87.3-194.7,194.7c0,35.5,6.6,64.6,20.6,90.6l-207,203 c-2.7,2.7-4.5,6.3-4.9,10.1l-8.5,83.8c-0.5,4.7,1,9.3,4.2,12.8c3.1,3.5,7.6,5.5,12.3,5.5h85.9c5.4,0,10.4-2.6,13.5-7l28.8-40.9 l41.7-6.7c6.7-1,12.1-6.1,13.5-12.7l10-44.5l46.8-2.2c8.4-0.3,15.2-7,15.8-15.4l3.7-52.1l45.3-41.2c23.1,9.6,45.5,11.8,72.8,11.8 c107.4,0,194.7-87.3,194.7-194.7C601.5,112.5,514.1,25.1,406.8,25.1z M406.8,381.3c-27.9,0-47-2.1-68.2-13 c-6.1-3.2-13.6-2.2-18.7,2.4l-58.3,53c-3.2,2.9-5.1,6.8-5.4,11.1l-3.1,44l-44.7,2c-7.5,0.3-13.8,5.6-15.4,12.9l-10.4,46l-37.6,6 c-4.4,0.7-8.4,3.2-10.9,6.8l-27.9,39.6h-59l6.1-59.5l212-207.8c5.6-5.5,6.6-14.3,2.3-20.9c-15.4-23.6-22.2-49.6-22.2-84.3 c0-89.1,72.5-161.5,161.5-161.5c89.1,0,161.6,72.5,161.6,161.5C568.4,308.9,495.9,381.3,406.8,381.3z"></path> </svg>