<svg height="24" width="24" xmlns="http://www.w3.org/2000/svg" viewBox="2.4 16.5 607.2 606"><path d="M124.4 585.3c-22.8 22.8-60 22.8-82.8 0 -22.8-22.8-22.8-60 0-82.8L231.1 313l-13.7-13.9L27.9 488.6c-30.5 30.5-30.5 80 0 110.4 36.5 36.5 89.4 23.4 110.4 0l155.4-155.4 -13.7-13.7L124.4 585.3zM299.4 244.7l25.6-25.6c-19.6-46.6-3.7-106.7 32.2-142.6 28.8-28.8 68.3-43 108.4-39.4l-65.5 65.5 46.6 77.7 77.7 46.6 65.5-65.5c3.6 40-10.5 79.6-39.4 108.4 -27.9 27.9-66.3 42.3-105.8 39.7l-1.3 19.5c49.4 3.3 91.4-16 120.8-45.3 70.5-70.5 37.9-162.2 37.9-162.2l-80.8 80.8L460.9 166l-36.2-60.4 80.8-80.8c0 0-91.9-32.3-162.1 37.9 -39.6 39.6-54.7 96.9-40.4 150.8L285.6 231 299.4 244.7zM52.8 544.6c0 16.4 13.3 29.6 29.6 29.6s29.6-13.3 29.6-29.6c0-16.4-13.3-29.6-29.6-29.6C66.1 514.8 52.8 528.2 52.8 544.6zM92.6 544.6c0 5.6-4.5 10.2-10.2 10.2s-10.2-4.5-10.2-10.2 4.5-10.2 10.2-10.2S92.6 539 92.6 544.6zM387.2 290.8l20.7-20.7 -41.4-41.5 -55.2 55.2L112.8 85.6l7.5-22.5L40.6 16.5 2.4 54.7 49 134.5l22.5-7.5 198.3 198.3 -55.1 55.2 41.4 41.4 20.7-20.7 198.5 198.5c35.9 35.9 86.1 24.4 110.4 0 30.5-30.5 30.5-80 0-110.4L387.2 290.8zM76.7 104.6l-18.9 6.3 -31-53.1 17-17 53 31.1 -6.3 18.9 206.9 206.9 -13.7 13.7L76.7 104.6zM256 394.3l-13.7-13.9 124.2-124.2 13.9 13.7L256 394.3zM572 585.9c-22.8 22.8-60 22.8-82.8 0L290.6 387.4l34.5-34.5 198.4 198.5 13.7-13.7L338.9 339.1l34.5-34.5L572 503.1C594.7 525.9 594.7 563.1 572 585.9z"></path></svg>