<svg height="24" width="24" xmlns="http://www.w3.org/2000/svg" viewBox="2.4 20.9 607.2 597.2"> <path d="M188.5,530c-59.4,0-107.7-48.3-107.7-107.7c0-5.4-4.4-9.8-9.8-9.8s-9.8,4.4-9.8,9.8c0,70.2,57.1,127.3,127.3,127.3 c5.4,0,9.8-4.4,9.8-9.8C198.3,534.4,193.9,530,188.5,530z M450.9,54c-3.7-4.7-11.6-4.7-15.3,0c-0.6,0.7-50.8,64-94.2,134.1 C287.8,103.2,229.9,30,225.4,24.4c-3.7-4.7-11.6-4.7-15.3,0C201.6,35,2.4,287,2.4,402.7c0,118.8,96.7,215.4,215.5,215.4 c81.4,0,152.4-45.3,188.9-112.1c12.1,2.7,24.3,4.1,36.3,4.1c91.8,0,166.5-74.7,166.5-166.5C609.6,254.7,457.2,62.1,450.9,54z M413.8,402.6c0,1.8,0,3.6-0.1,5.4c0,0.6,0,1.1-0.1,1.6c0,1.3-0.1,2.5-0.2,3.8c0,0.6-0.1,1.2-0.1,1.7c-0.1,1.3-0.2,2.6-0.3,3.8 c0,0.5-0.1,1-0.1,1.4c-0.1,1.5-0.3,3-0.5,4.4c0,0.2-0.1,0.5-0.1,0.7c-2.7,22.4-9.2,44-19.6,64.6c-0.3,0.6-0.5,1.2-0.7,1.7 c-32.5,63.2-98.4,106.5-174.3,106.5C109.8,598.5,22,510.6,22,402.6C22,306,180.9,94.4,217.9,46.4c24.9,32.3,104.5,138.1,154.3,233.4 c25,48.1,39,87.1,41.3,115c0,0.1,0,0.1,0,0.2c0.1,1.2,0.2,2.4,0.2,3.5c0,0.3,0,0.5,0,0.8C413.8,400.4,413.8,401.5,413.8,402.6 C413.8,402.6,413.8,402.6,413.8,402.6C413.8,402.6,413.8,402.6,413.8,402.6z M443.1,490.5c-9,0-18.2-1-27.4-2.7 c4.8-11.1,8.7-22.8,11.6-34.8c4-16.4,6-33.3,6-50.5c0-41.8-25.9-105.8-76.8-190.1c-1.1-1.8-2.1-3.5-3.2-5.3 c-0.1-0.2-0.3-0.4-0.4-0.7c33.9-55.9,73.9-109.1,90.2-130.5C474.3,116.7,590,272.2,590,343.6C590,424.7,524.1,490.5,443.1,490.5z"></path> </svg>