<svg class="svg-ico-youtube" xmlns="http://www.w3.org/2000/svg" width="32" height="32" viewBox="0 0 96.9 96.9"><path d="M95.2 25.5c-1.2-5.2-5.4-9-10.5-9.5 -12-1.3-24.2-1.3-36.3-1.3 -12.1 0-24.3 0-36.3 1.3 -5.1 0.6-9.3 4.4-10.5 9.5C0 32.9 0 40.9 0 48.4 0 56 0 64 1.7 71.3c1.2 5.2 5.4 9 10.5 9.5 12 1.3 24.2 1.3 36.3 1.3 12.1 0 24.3 0 36.3-1.3 5.1-0.6 9.3-4.4 10.5-9.5 1.7-7.3 1.7-15.3 1.7-22.9C96.9 40.9 96.9 32.9 95.2 25.5zM35.9 63.5c0-10.7 0-21.3 0-32 10.3 5.4 20.5 10.7 30.8 16.1C56.4 52.8 46.2 58.1 35.9 63.5z"></path></svg>