<svg height="24" width="24" xmlns="http://www.w3.org/2000/svg" viewBox="0 0 456.6 456.6"><path d="M335 312.7c-3.4 0-6.9-1.3-9.5-3.9 -5.2-5.2-5.2-13.7 0-19l48.1-48.1h-191.6c-7.4 0-13.4-6-13.4-13.4s6-13.4 13.4-13.4h190.8l-47.4-48.2c-5.2-5.3-5.1-13.7 0.1-19 5.2-5.2 13.7-5.2 19 0l71 71c2.5 2.5 3.9 5.9 3.9 9.5s-1.4 7-3.9 9.5l-71 71C341.9 311.4 338.5 312.7 335 312.7z"></path><path d="M311.4 456.6H50.5c-7.4 0-13.4-6-13.4-13.4v-429.7C37.1 6 43.1 0 50.5 0h261c7.4 0 13.4 6 13.4 13.4v78.6c0 7.4-6 13.4-13.4 13.4 -7.4 0-13.4-6-13.4-13.4v-65.2H63.9V429.7h234.1v-65.2c0-7.4 6-13.4 13.4-13.4 7.4 0 13.4 6 13.4 13.4v78.6C324.9 450.5 318.9 456.6 311.4 456.6z"></path></svg>