<svg height="24" width="24" xmlns="http://www.w3.org/2000/svg" viewBox="55.8 13.5 500.4 612"><path d="M196 417H416v-38.3H196V417zM196 327.4H416v-38.2H196V327.4zM517.4 92.2C465 92.2 370.8 81.6 306 13.5 241.2 81.6 147 92.2 94.6 92.2c-23.7 0-38.8-2.2-38.8-2.2s0 110 0 267.8S306 625.5 306 625.5s250.2-110 250.2-267.8 0-267.8 0-267.8S541.1 92.2 517.4 92.2zM518 357.8c0 100.7-141 190.7-212 225.5C235 548.6 94 458.7 94 357.8V130.4h0.5c50.4 0 139.7-9.2 211.4-65.4 71.8 56.2 161 65.4 211.4 65.4h0.5V357.8zM196 237.7H416v-38.3H196V237.7z"/></svg>