<svg height="24" width="24" xmlns="http://www.w3.org/2000/svg" viewBox="0 13.5 612 612"><path d="M103.5 421.1l13.3 23 46.1-26.6 -13.3-23L103.5 421.1zM181.4 130.3l26.6 46.1 23-13.3L204.4 117 181.4 130.3zM239.5 519.1h26.6v-26.6h-26.6V519.1zM319.3 93.3h-26.6v53.2h26.6V93.3zM292.7 519.1h26.6v-26.6h-26.6V519.1zM306 13.5c-169 0-306 137-306 306s137 306 306 306 306-137 306-306S475 13.5 306 13.5zM306 598.9c-154.1 0-279.4-125.4-279.4-279.4S151.9 40.1 306 40.1s279.4 125.4 279.4 279.4S460.1 598.9 306 598.9zM133 306.2H79.8v26.6H133V306.2zM162.9 221.5l-46.1-26.6 -13.3 23 46.1 26.6L162.9 221.5zM319.3 361.9V199.8h-26.6v162.1c-15.5 5.5-26.6 20.1-26.6 37.5 0 22 17.9 39.9 39.9 39.9s39.9-17.9 39.9-39.9C345.9 382 334.8 367.4 319.3 361.9zM479 306.2v26.6h53.2v-26.6H479zM508.5 217.9l-13.3-23 -46.1 26.6 13.3 23L508.5 217.9zM449.1 417.5l46.1 26.6 13.3-23 -46.1-26.6L449.1 417.5zM345.9 519.1h26.6v-26.6h-26.6V519.1zM380.9 163.1l23 13.3 26.6-46.1 -23-13.3L380.9 163.1z"/></svg>