<svg class="svg-ico-instagram" xmlns="http://www.w3.org/2000/svg" width="32" height="32" viewBox="38 318 612 612"><path fill="#a43b97" d="M507.7,625.8c0,90.7-73.5,164.2-164.2,164.2s-164.2-73.5-164.2-164.2c0-33.5,10.1-64.6,27.3-90.7H38  v254.2C38,867,101,930,178.7,930h330.4c77.7,0,140.7-63,140.7-140.7V535.1H480.2C497.5,561,507.7,592.3,507.7,625.8z M344,743.1  c64.8,0,117.3-52.5,117.3-117.3S408.8,508.5,344,508.5S226.7,561,226.7,625.8C226.7,690.6,279.2,743.1,344,743.1z M279.9,561.5  c17.2-17,40-26.6,64.1-26.6c24.3,0,47.1,9.4,64.3,26.6c17.2,17.2,26.6,40,26.6,64.3s-9.4,47.1-26.6,64.3  c-17.2,17.2-40,26.6-64.3,26.6c-24.3,0-47.1-9.4-64.1-26.6c-17.2-17.2-26.6-40-26.6-64.3C253.3,601.5,262.7,578.7,279.9,561.5z   M509.3,318H178.7c-7.4,0-14.8,0.5-22.1,1.6h22.6v142h-26.6V320.4c-9.2,1.6-18.1,4.3-26.4,7.8v133.6H99.7V342.3  C62.4,367.6,38,410.3,38,458.7v49.8h190.5c29.7-29,70.1-46.9,115-46.9c44.7,0,85.3,17.9,115,46.9H650v-49.8  C650,381,587,318,509.3,318z M577,461.6h-69.3v-69.3H577V461.6z"></path></svg>