<svg height="24" width="24" xmlns="http://www.w3.org/2000/svg" viewBox="-0.1 7 612.1 622.4"><path d="M208.6 262.5c-4-4-10.6-4-14.6 0L83.9 372.6c-4 4-4 10.6 0 14.6 2.1 2.1 4.7 3 7.4 3s5.3-1 7.4-3l110.1-110.1C212.6 273.1 212.6 266.5 208.6 262.5zM142.6 416.5c-2 1.9-3 4.6-3 7.4 0 2.7 1 5.4 3 7.3 2 2 4.6 3.1 7.4 3.1 2.7 0 5.4-1.1 7.4-3.1 1.9-2 3-4.6 3-7.3 0-2.8-1.1-5.4-3.1-7.4C153.4 412.7 146.5 412.7 142.6 416.5zM259.9 416.5c2.1 2.1 4.7 3 7.4 3 2.7 0 5.3-1 7.4-3l73.3-73.3c4-4 4-10.6 0-14.6s-10.6-4-14.6 0L260 401.9C255.9 406 255.9 412.5 259.9 416.5zM296.7 291.9c4-4 4-10.6 0-14.6 -4-4-10.6-4-14.6 0L172 387.2c-4 4-4 10.6 0 14.6 2.1 2.1 4.7 3 7.4 3 2.7 0 5.3-1 7.4-3L296.7 291.9zM238 243.5c2.8 0 5.4-1.1 7.4-3 1.9-2 3-4.7 3-7.4 0-2.8-1.1-5.5-3-7.4 -3.8-3.8-10.9-3.8-14.6 0 -2 2-3.1 4.6-3.1 7.4 0 2.7 1.1 5.4 3 7.4C232.6 242.4 235.3 243.5 238 243.5zM384.6 379.8c-1.9 2-3 4.7-3 7.4 0 2.7 1.1 5.4 3 7.4 2 1.9 4.7 3 7.4 3 2.8 0 5.5-1.1 7.4-3 1.9-2 3-4.6 3-7.4 0-2.8-1.1-5.5-3-7.4C395.6 376 388.5 376 384.6 379.8zM348 416.5L238 526.5c-4 4-4 10.6 0 14.6 2.1 2.1 4.7 3 7.4 3 2.7 0 5.3-1 7.4-3l110.1-110.1c4-4 4-10.6 0-14.6S352.1 412.5 348 416.5zM201.3 460.5l-14.6 14.7c-4 4-4 10.6 0 14.6 2.1 2.1 4.7 3 7.4 3 2.7 0 5.3-1 7.4-3l14.6-14.7c4-4 4-10.6 0-14.6C211.9 456.5 205.4 456.5 201.3 460.5zM609 10c-4-4-10.6-4-14.6 0l-38.6 38.5H314.3L10.7 354.6c-14.3 14.3-14.3 37.4 0 51.8L223 618.7c6.9 6.9 16.1 10.7 25.9 10.7s19-3.8 25.9-10.8L570.5 315V63.1L609 24.7C613 20.7 613 14.1 609 10zM549.8 306.5L260 604c-6 6-16.4 6-22.4 0L25.4 391.7c-6.2-6.2-6.2-16.3 0-22.5L323 69.3h212.1L485 119.4c-8.3-5.4-18-8.6-28.6-8.6 -28.6 0-51.9 23.2-51.9 51.9s23.2 51.9 51.9 51.9c28.6 0 51.9-23.2 51.9-51.9 0-10.6-3.2-20.3-8.6-28.5l50.1-50.2V306.5zM449.1 169.9c2 2.1 4.6 3.1 7.3 3.1 2.7 0 5.3-1 7.4-3l20.6-20.6c2 4 3.1 8.5 3.1 13.3 0 17.1-14 31.1-31.1 31.1 -17.1 0-31.1-14-31.1-31.1s14-31.1 31.1-31.1c4.8 0 9.2 1.1 13.4 3.1l-20.6 20.6C445.1 159.3 445.1 165.8 449.1 169.9zM245.3 445.9c2-2 3-4.7 3-7.4 0-2.7-1-5.4-3-7.4 -3.8-3.8-10.9-3.8-14.7 0 -1.9 2-3 4.7-3 7.4 0 2.7 1.1 5.4 3 7.4 2 1.9 4.7 3 7.4 3C240.8 448.9 243.3 447.8 245.3 445.9z"></path></svg>