<svg height="24" width="24" xmlns="http://www.w3.org/2000/svg" viewBox="57.4 61.3 497.3 525.9"><path d="M459 329.1h-76.5c-26.3 0-47.8 21.5-47.8 47.8v76.5c0 26.3 21.5 47.8 47.8 47.8H459c26.3 0 47.8-21.5 47.8-47.8v-76.5C506.8 350.6 485.3 329.1 459 329.1zM487.7 453.4c0 7-2.4 13.3-6.4 18.3l-5.8-5.8c-1.8-1.9-4.3-2.9-6.9-2.9 -5.3 0-9.6 4.3-9.6 9.6 0 2.6 1.1 5.1 2.9 6.9l2.3 2.3c-1.7 0.3-3.4 0.5-5.2 0.5h-76.5c-1.8 0-3.5-0.2-5.2-0.5l2.3-2.3c3.8-3.7 3.8-9.7 0.2-13.5 -1.9-1.9-4.4-2.9-7.1-2.9 -2.5 0.1-4.8 1.1-6.6 2.9l-5.8 5.8c-4-4.9-6.4-11.3-6.4-18.3v-76.5c0-4.5 1-8.7 2.8-12.5 0.1 0.1 0.1 0.1 0.2 0.2l9.3 9.4c3.7 3.8 9.7 3.9 13.5 0.3 3.8-3.7 3.9-9.7 0.3-13.5 -0.1-0.1-0.2-0.2-0.3-0.3l-9.3-9.4c0 0-0.1-0.1-0.2-0.1 3.7-1.8 7.9-2.7 12.4-2.7H459c4.5 0 8.7 1 12.4 2.7 0 0-0.1 0.1-0.2 0.1l-9.3 9.4c-3.8 3.7-3.9 9.7-0.3 13.5 3.7 3.8 9.7 3.9 13.5 0.3 0.1-0.1 0.2-0.2 0.3-0.3l9.3-9.4c0.1-0.1 0.1-0.1 0.2-0.2 1.8 3.8 2.8 8 2.8 12.5V453.4zM420.8 367.3c-26.3 0-47.8 21.5-47.8 47.8 0 26.3 21.5 47.8 47.8 47.8s47.8-21.5 47.8-47.8C468.6 388.8 447 367.3 420.8 367.3zM420.8 443.8c-16 0-28.7-12.7-28.7-28.7s12.7-28.7 28.7-28.7 28.7 12.7 28.7 28.7S436.7 443.8 420.8 443.8zM459.2 568.1c-0.1 0-0.2 0-0.3 0H440c-5.3-0.1-9.6 4.1-9.7 9.4 -0.1 5.3 4.1 9.6 9.4 9.7 0.1 0 0.2 0 0.3 0h18.9c5.3 0.1 9.6-4.1 9.7-9.4C468.7 572.5 464.4 568.2 459.2 568.1zM506.8 61.3H105.2c-26.3 0-47.8 21.5-47.8 47.8v401.6c0 26.3 21.5 47.8 47.8 47.8h401.6c26.3 0 47.8-21.5 47.8-47.8V109.1C554.6 82.8 533.1 61.3 506.8 61.3zM535.5 510.8c0 16.1-12.6 28.7-28.7 28.7H105.2c-16.1 0-28.7-12.6-28.7-28.7V109.1c0-16.1 12.6-28.7 28.7-28.7h401.6c16.1 0 28.7 12.6 28.7 28.7V510.8zM172.3 568.1c-0.1 0-0.2 0-0.3 0h-18.9c-5.3-0.1-9.6 4.1-9.7 9.4 -0.1 5.3 4.1 9.6 9.4 9.7 0.1 0 0.2 0 0.3 0H172c5.3 0.1 9.6-4.1 9.7-9.4C181.8 572.5 177.6 568.2 172.3 568.1zM191.3 367.3c-26.3 0-47.8 21.5-47.8 47.8 0 26.3 21.5 47.8 47.8 47.8s47.8-21.5 47.8-47.8C239.1 388.8 217.5 367.3 191.3 367.3zM191.3 443.8c-16 0-28.7-12.7-28.7-28.7s12.7-28.7 28.7-28.7 28.7 12.7 28.7 28.7S207.2 443.8 191.3 443.8zM459 118.7h-76.5c-26.3 0-47.8 21.5-47.8 47.8V243c0 26.3 21.5 47.8 47.8 47.8H459c26.3 0 47.8-21.5 47.8-47.8v-76.5C506.8 140.2 485.3 118.7 459 118.7zM487.7 243c0 5.8-1.6 11.1-4.5 15.5l-7.8-7.8c-1.8-1.9-4.3-2.9-6.9-2.9 -5.3 0-9.6 4.3-9.6 9.6 0 2.6 1.1 5.1 2.9 6.9l6.1 6.1c-2.8 0.9-5.8 1.4-9 1.4h-76.5c-3.1 0-6.2-0.5-9-1.4l6.1-6.1c3.8-3.7 3.8-9.7 0.2-13.5 -1.9-1.9-4.4-2.9-7.1-2.9 -2.5 0.1-4.8 1.1-6.6 2.9l-7.8 7.8c-2.8-4.5-4.5-9.8-4.5-15.5v-76.5c0-5.7 1.6-11.1 4.4-15.5l7.8 7.8c3.7 3.8 9.7 3.9 13.5 0.3 3.8-3.7 3.9-9.7 0.3-13.5 -0.1-0.1-0.2-0.2-0.3-0.3l-6.1-6.1c2.8-0.9 5.8-1.4 9-1.4H459c3.2 0 6.2 0.5 9 1.4l-6.1 6.1c-3.8 3.7-3.9 9.7-0.3 13.5 3.7 3.8 9.7 3.9 13.5 0.3 0.1-0.1 0.2-0.2 0.3-0.3l7.8-7.8c2.8 4.4 4.4 9.8 4.4 15.5V243zM229.5 118.7H153c-26.3 0-47.8 21.5-47.8 47.8V243c0 26.3 21.5 47.8 47.8 47.8h76.5c26.3 0 47.8-21.5 47.8-47.8v-76.5C277.3 140.2 255.8 118.7 229.5 118.7zM258.2 243c0 5.8-1.6 11.1-4.5 15.5l-7.8-7.8c-1.8-1.9-4.3-2.9-6.9-2.9 -5.3 0-9.6 4.3-9.6 9.6 0 2.6 1.1 5.1 2.9 6.9l6.1 6.1c-2.8 0.9-5.8 1.4-9 1.4H153c-3.1 0-6.2-0.5-9-1.4l6.1-6.1c3.8-3.7 3.8-9.7 0.2-13.5 -1.9-1.9-4.4-2.9-7.1-2.9 -2.5 0.1-4.8 1.1-6.6 2.9l-7.8 7.8c-2.8-4.5-4.5-9.8-4.5-15.5v-76.5c0-5.7 1.6-11.1 4.4-15.5l7.8 7.8c3.7 3.8 9.7 3.9 13.5 0.3 3.8-3.7 3.9-9.7 0.3-13.5 -0.1-0.1-0.2-0.2-0.3-0.3l-6.1-6.1c2.8-0.9 5.8-1.4 9-1.4h76.5c3.2 0 6.2 0.5 9 1.4l-6.1 6.1c-3.8 3.7-3.9 9.7-0.3 13.5 3.7 3.8 9.7 3.9 13.5 0.3 0.1-0.1 0.2-0.2 0.3-0.3l7.8-7.8c2.8 4.4 4.4 9.8 4.4 15.5V243zM229.5 329.1H153c-26.3 0-47.8 21.5-47.8 47.8v76.5c0 26.3 21.5 47.8 47.8 47.8h76.5c26.3 0 47.8-21.5 47.8-47.8v-76.5C277.3 350.6 255.8 329.1 229.5 329.1zM258.2 453.4c0 7-2.4 13.3-6.4 18.3l-5.8-5.8c-1.8-1.9-4.3-2.9-6.9-2.9 -5.3 0-9.6 4.3-9.6 9.6 0 2.6 1.1 5.1 2.9 6.9l2.3 2.3c-1.7 0.3-3.4 0.5-5.2 0.5H153c-1.8 0-3.5-0.2-5.2-0.5l2.3-2.3c3.8-3.7 3.8-9.7 0.2-13.5 -1.9-1.9-4.4-2.9-7.1-2.9 -2.5 0.1-4.8 1.1-6.6 2.9l-5.8 5.8c-4-4.9-6.4-11.3-6.4-18.3v-76.5c0-4.5 1-8.7 2.8-12.5 0.1 0.1 0.1 0.1 0.2 0.2l9.3 9.4c3.7 3.8 9.7 3.9 13.5 0.3 3.8-3.7 3.9-9.7 0.3-13.5 -0.1-0.1-0.2-0.2-0.3-0.3l-9.3-9.4c0 0-0.1-0.1-0.2-0.1 3.7-1.8 7.9-2.7 12.4-2.7h76.5c4.5 0 8.7 1 12.4 2.7 0 0-0.1 0.1-0.2 0.1l-9.3 9.4c-3.8 3.7-3.9 9.7-0.3 13.5 3.7 3.8 9.7 3.9 13.5 0.3 0.1-0.1 0.2-0.2 0.3-0.3l9.3-9.4c0.1-0.1 0.1-0.1 0.2-0.2 1.8 3.8 2.8 8 2.8 12.5V453.4zM191.3 156.9c-26.3 0-47.8 21.5-47.8 47.8 0 26.3 21.5 47.8 47.8 47.8s47.8-21.5 47.8-47.8C239.1 178.4 217.5 156.9 191.3 156.9zM191.3 233.4c-16 0-28.7-12.7-28.7-28.7s12.7-28.7 28.7-28.7 28.7 12.7 28.7 28.7S207.2 233.4 191.3 233.4zM420.8 156.9c-26.3 0-47.8 21.5-47.8 47.8 0 26.3 21.5 47.8 47.8 47.8s47.8-21.5 47.8-47.8C468.6 178.4 447 156.9 420.8 156.9zM420.8 233.4c-16 0-28.7-12.7-28.7-28.7s12.7-28.7 28.7-28.7 28.7 12.7 28.7 28.7S436.7 233.4 420.8 233.4z"></path></svg>