<svg height="24" width="24" xmlns="http://www.w3.org/2000/svg" viewBox="9.2 76.5 593.6 485.9"><path d="M224 296.9c-1.8 1.8-2.4 4.3-2.4 6.7 0 2.4 1.2 4.9 2.4 6.7 1.8 1.8 4.3 2.4 6.7 2.4s4.9-1.2 6.7-2.4c1.8-1.8 2.4-4.3 2.4-6.7s-1.2-4.9-2.4-6.7C233.8 293.8 227.7 293.8 224 296.9zM452.9 232c0-85.7-69.8-155.4-155.4-155.4H164.6C78.9 76.5 9.2 146.3 9.2 232c0 64.9 39.8 121.8 99.8 145v63c0 9.2 7.3 16.5 16.5 16.5 4.3 0 8.6-1.8 11.6-4.9l64.3-64.3h96.1C383.1 387.4 452.9 317.7 452.9 232zM197.7 369.7c-2.4 0-4.9 0.6-6.7 2.4l-63.6 63.6v-65.5c0-3.7-2.4-7.3-6.1-8.6 -55.7-18.4-93.6-71-93.6-129.7 0-75.9 61.2-137.1 136.5-136.5h132.8c75.9 0 137.1 61.8 137.1 137.1 0 75.9-61.8 137.1-137.1 137.1H197.7zM239.9 151.2c-12.9-2.4-25.1 0.6-34.9 8.6s-15.3 19.6-15.3 32.4c-0.6 5.5 3.1 9.8 8.6 9.8 4.9 0 9.2-4.3 9.2-9.2 0-7.3 3.1-13.5 8.6-18.4 5.5-4.3 12.9-6.1 19.6-4.9 8.6 1.8 15.9 9.2 17.7 17.7 1.8 9.2-1.2 17.7-8.6 23.3 -14.7 11.6-23.3 28.2-23.3 45.9 0 4.9 4.3 9.2 9.2 9.2s9.2-4.3 9.2-9.2c0-11.6 6.1-23.3 16.5-31.8 12.9-9.8 18.4-25.7 15.3-41.6S255.8 154.3 239.9 151.2zM504.3 271.8c-4.9-1.2-9.2 2.4-10.4 7.3 -1.2 4.9 2.4 9.2 7.3 10.4 48.3 9.2 83.2 51.4 83.2 100.4 0 44.1-28.2 82.6-69.8 96.7 -3.7 1.2-6.1 4.9-6.1 8.6v44.1l-44.7-44.7c-1.8-1.2-4.3-2.4-6.7-2.4h-75.3c-38.6 0-73.4-21.4-91.2-56.3 -2.4-4.9-8-6.7-12.2-4.3 -4.9 2.4-6.7 8-4.3 12.2 20.8 41 61.8 66.1 107.7 66.1h71.6l48.3 48.3c3.1 3.1 6.7 4.3 10.4 4.3 1.8 0 3.7-0.6 5.5-1.2 5.5-2.4 9.2-7.3 9.2-13.5v-46.5c45.3-18.4 75.9-62.4 75.9-112C602.8 331.1 561.8 281.6 504.3 271.8z"></path></svg>